<svg xmlns="http://www.w3.org/2000/svg" width="34.799" height="35.776" viewBox="0 0 34.799 35.776">
    <path data-name="Icon material-settings" d="M34.1 22.641a13.94 13.94 0 0 0 .125-1.753 13.94 13.94 0 0 0-.125-1.753l3.774-2.951a.9.9 0 0 0 .215-1.145l-3.577-6.19a.9.9 0 0 0-1.091-.394l-4.454 1.789a13.069 13.069 0 0 0-3.023-1.753l-.68-4.74A.872.872 0 0 0 24.387 3h-7.155a.872.872 0 0 0-.876.751l-.68 4.74a13.743 13.743 0 0 0-3.023 1.753L8.2 8.456a.873.873 0 0 0-1.091.394L3.53 15.039a.882.882 0 0 0 .215 1.145l3.774 2.951a14.186 14.186 0 0 0-.125 1.753 14.186 14.186 0 0 0 .125 1.753l-3.774 2.951a.9.9 0 0 0-.215 1.145l3.578 6.189a.9.9 0 0 0 1.092.394l4.454-1.789a13.069 13.069 0 0 0 3.023 1.753l.68 4.74a.872.872 0 0 0 .876.751h7.155a.872.872 0 0 0 .877-.751l.68-4.74a13.743 13.743 0 0 0 3.023-1.753l4.454 1.789a.873.873 0 0 0 1.091-.394l3.578-6.189a.9.9 0 0 0-.215-1.145L34.1 22.641zm-13.29 4.508a6.261 6.261 0 1 1 6.261-6.261 6.268 6.268 0 0 1-6.261 6.261z" transform="translate(-3.406 -3)" style="fill:#84715c"/>
</svg>
