<svg xmlns="http://www.w3.org/2000/svg" width="30.835" height="36.149" viewBox="0 0 30.835 36.149">
  <path id="Icon_zocial-guest" data-name="Icon zocial-guest" d="M4.7,29.856a9.682,9.682,0,0,1,.455-2.429,14.455,14.455,0,0,1,3.282-6,14.262,14.262,0,0,1,5.6-3.907,7.475,7.475,0,0,1-3-6.109,7.391,7.391,0,0,1,2.371-5.54A7.857,7.857,0,0,1,19.045,3.6a7.861,7.861,0,0,1,5.634,2.277,7.391,7.391,0,0,1,2.371,5.54,7.508,7.508,0,0,1-2.922,6.071A14.853,14.853,0,0,1,30.843,22.3a11.747,11.747,0,0,1,2.694,7.513q0,3.491-2.77,4.023a4.342,4.342,0,0,1-.493.986,2.369,2.369,0,0,1-.892,1.081,5.634,5.634,0,0,1-1.84.778c-.785.2-1.41.355-1.878.454s-1.183.216-2.145.343-1.455.19-1.48.19a1.618,1.618,0,0,0-.266.037,1.716,1.716,0,0,1-.263.04H16.957a24.643,24.643,0,0,1-4.893-.627Q9.1,36.5,8.686,35.432a3.9,3.9,0,0,1-.949-1.594,3.18,3.18,0,0,1-1.594-.8Q4.7,32.473,4.7,29.856Z" transform="translate(-3.702 -2.599)" fill="none" stroke="#84715c" stroke-width="2"/>
</svg>
