<svg xmlns="http://www.w3.org/2000/svg" width="43.5" height="43.5" viewBox="0 0 43.5 43.5">
    <path data-name="Icon ionic-ios-list-box" d="M3.375 7v36.248A3.63 3.63 0 0 0 7 46.875h36.248a3.63 3.63 0 0 0 3.628-3.628V7a3.63 3.63 0 0 0-3.628-3.628H7A3.623 3.623 0 0 0 3.375 7zm9.336 31.06a2.088 2.088 0 1 1 1.8-1.8 2.081 2.081 0 0 1-1.8 1.802zm0-10.872a2.088 2.088 0 1 1 1.8-1.8 2.081 2.081 0 0 1-1.8 1.802zm0-10.872a2.088 2.088 0 1 1 1.8-1.8 2.081 2.081 0 0 1-1.8 1.801zm25.864 21.14H19.757a1.468 1.468 0 0 1-1.464-1.464 1.468 1.468 0 0 1 1.464-1.464h18.818a1.468 1.468 0 0 1 1.464 1.464 1.468 1.468 0 0 1-1.464 1.464zm0-10.872H19.757a1.468 1.468 0 0 1-1.464-1.464 1.468 1.468 0 0 1 1.464-1.464h18.818a1.468 1.468 0 0 1 1.464 1.464 1.468 1.468 0 0 1-1.464 1.463zm0-10.872H19.757a1.468 1.468 0 0 1-1.464-1.464 1.468 1.468 0 0 1 1.464-1.464h18.818a1.468 1.468 0 0 1 1.464 1.464 1.468 1.468 0 0 1-1.464 1.463z" transform="translate(-3.375 -3.375)" style="fill:#84715c"/>
</svg>
