<svg xmlns="http://www.w3.org/2000/svg" width="41.777" height="29.244" viewBox="0 0 41.777 29.244">
    <path data-name="Icon awesome-money-check-alt" d="M39.688 2.25H2.089A2.089 2.089 0 0 0 0 4.339V29.4a2.089 2.089 0 0 0 2.089 2.089h37.6a2.089 2.089 0 0 0 2.088-2.089V4.339a2.089 2.089 0 0 0-2.089-2.089zm-28.2 19.314v1.052a.522.522 0 0 1-.522.522H9.922a.522.522 0 0 1-.522-.522v-1.063a3.738 3.738 0 0 1-2.048-.741.523.523 0 0 1-.037-.792l.767-.732a.536.536 0 0 1 .661-.048 1.572 1.572 0 0 0 .837.243h1.835a.821.821 0 0 0 .77-.861.852.852 0 0 0-.572-.831l-2.938-.881a2.954 2.954 0 0 1-2.061-2.832A2.907 2.907 0 0 1 9.4 11.135v-1.052a.522.522 0 0 1 .522-.522h1.044a.522.522 0 0 1 .522.522v1.063a3.733 3.733 0 0 1 2.048.741.523.523 0 0 1 .037.792l-.767.732a.536.536 0 0 1-.661.048 1.566 1.566 0 0 0-.837-.243H9.473a.821.821 0 0 0-.77.861.852.852 0 0 0 .572.831l2.937.881a2.954 2.954 0 0 1 2.061 2.832 2.906 2.906 0 0 1-2.784 2.943zm15.666-1.037a.522.522 0 0 1-.522.522h-7.31a.522.522 0 0 1-.522-.522v-1.044a.522.522 0 0 1 .522-.522h7.311a.522.522 0 0 1 .522.522zm10.444 0a.522.522 0 0 1-.522.522h-5.221a.522.522 0 0 1-.522-.522v-1.044a.522.522 0 0 1 .522-.522h5.222a.522.522 0 0 1 .522.522zm0-6.267a.522.522 0 0 1-.522.522H19.322a.522.522 0 0 1-.522-.522v-1.044a.522.522 0 0 1 .522-.522h17.755a.522.522 0 0 1 .522.522z" transform="translate(0 -2.25)" style="fill:#84715c"/>
</svg>
