<svg xmlns="http://www.w3.org/2000/svg" width="34.957" height="31.79" viewBox="0 0 34.957 31.79">
    <path data-name="Icon awesome-spa" d="M34.486 13.6a17.788 17.788 0 0 0-12.978 5.89 18.562 18.562 0 0 0-4.03 6.731 18.562 18.562 0 0 0-4.03-6.731A17.788 17.788 0 0 0 .47 13.6a.506.506 0 0 0-.47.555C.014 16.14.433 23.109 5.387 28.3c5.1 5.806 10.149 5.739 12.091 5.739s6.991.067 12.091-5.739c4.955-5.192 5.373-12.161 5.387-14.142a.506.506 0 0 0-.47-.555zm-17.009 7.852a18.96 18.96 0 0 1 2.676-3.585 18.7 18.7 0 0 1 3.657-3.206c-1-5-3.139-9.441-5.87-12.221a.649.649 0 0 0-.919 0c-2.73 2.777-4.871 7.212-5.871 12.21a18.375 18.375 0 0 1 3.594 3.15 19.477 19.477 0 0 1 2.733 3.652z" transform="translate(0 -2.25)" style="fill:#84715c"/>
</svg>
