<svg xmlns="http://www.w3.org/2000/svg" width="30.523" height="34.884" viewBox="0 0 30.523 34.884">
    <path data-name="Icon awesome-shopping-bag" d="M23.983 10.9V8.721a8.721 8.721 0 1 0-17.442 0V10.9H0v18.533a5.451 5.451 0 0 0 5.451 5.451h19.622a5.451 5.451 0 0 0 5.451-5.451V10.9zM10.9 8.721a4.36 4.36 0 1 1 8.721 0V10.9H10.9zM21.8 16.9a1.635 1.635 0 1 1 1.635-1.635A1.635 1.635 0 0 1 21.8 16.9zm-13.081 0a1.635 1.635 0 1 1 1.635-1.635A1.635 1.635 0 0 1 8.721 16.9z" style="fill:#84715c"/>
</svg>
