<svg xmlns="http://www.w3.org/2000/svg" width="32.08" height="28.516" viewBox="0 0 32.08 28.516">
    <path data-name="Icon metro-shop" d="m13.244 13.984 1.41-9.357H7.321l-3.064 8.02a2.811 2.811 0 0 0-.144.891c0 1.968 2.05 3.564 4.582 3.564 2.335 0 4.265-1.362 4.548-3.119zm6.91 3.119c2.531 0 4.582-1.6 4.582-3.564 0-.073-.005-.146-.009-.216l-.907-8.7h-7.333l-.909 8.688c0 .073-.007.146-.007.223 0 1.968 2.051 3.564 4.582 3.564zm8.911 1.864v7.047H11.242v-7.036a7.5 7.5 0 0 1-2.542.442 7.348 7.348 0 0 1-1.018-.087v11.315a2.5 2.5 0 0 0 2.492 2.5h19.96a2.5 2.5 0 0 0 2.5-2.5V19.334a7.657 7.657 0 0 1-1.018.087 7.406 7.406 0 0 1-2.552-.454zm6.986-6.32-3.067-8.02h-7.33l1.408 9.342c.275 1.764 2.2 3.133 4.55 3.133 2.531 0 4.582-1.6 4.582-3.564a2.862 2.862 0 0 0-.143-.891z" transform="translate(-4.113 -4.627)" style="fill:#84715c"/>
</svg>
