<svg xmlns="http://www.w3.org/2000/svg" width="26.097" height="29.826" viewBox="0 0 26.097 29.826">
    <path data-name="Icon awesome-calendar-check" d="M25.4 9.32H.7a.7.7 0 0 1-.7-.7v-2.1a2.8 2.8 0 0 1 2.8-2.8h2.8V.7a.7.7 0 0 1 .7-.7h2.33a.7.7 0 0 1 .7.7v3.028h7.456V.7a.7.7 0 0 1 .7-.7h2.33a.7.7 0 0 1 .7.7v3.028h2.8a2.8 2.8 0 0 1 2.8 2.8v2.1a.7.7 0 0 1-.716.692zM.7 11.185h24.7a.7.7 0 0 1 .7.7v15.144a2.8 2.8 0 0 1-2.8 2.8H2.8a2.8 2.8 0 0 1-2.8-2.8V11.884a.7.7 0 0 1 .7-.699zm19.415 5.589-1.641-1.654a.7.7 0 0 0-.989 0l-6.177 6.127-2.678-2.7a.7.7 0 0 0-.989 0L5.987 20.18a.7.7 0 0 0 0 .989l4.812 4.851a.7.7 0 0 0 .989 0l8.327-8.261a.7.7 0 0 0 0-.989z" style="fill:#84715c"/>
</svg>
