<svg xmlns="http://www.w3.org/2000/svg" width="22.281" height="22.281" viewBox="0 0 22.281 22.281">
    <path data-name="Icon awesome-line" d="M13.533 10.814v3.536a.157.157 0 0 1-.159.159h-.567a.164.164 0 0 1-.129-.065l-1.621-2.188v2.1a.157.157 0 0 1-.159.159h-.568a.157.157 0 0 1-.159-.159v-3.537a.157.157 0 0 1 .159-.159h.562a.15.15 0 0 1 .129.07l1.621 2.188v-2.1a.157.157 0 0 1 .159-.159h.567a.157.157 0 0 1 .164.154zm-4.078-.159h-.567a.157.157 0 0 0-.159.159v3.536a.157.157 0 0 0 .159.159h.567a.157.157 0 0 0 .159-.159v-3.536a.16.16 0 0 0-.159-.159zm-1.368 2.964H6.54v-2.805a.157.157 0 0 0-.159-.159h-.567a.157.157 0 0 0-.159.159v3.536a.146.146 0 0 0 .045.109.168.168 0 0 0 .109.045h2.273a.157.157 0 0 0 .159-.159v-.567a.159.159 0 0 0-.154-.159zm8.43-2.964h-2.273a.16.16 0 0 0-.159.159v3.536a.16.16 0 0 0 .159.159h2.273a.157.157 0 0 0 .159-.159v-.567a.157.157 0 0 0-.159-.159H14.97v-.6h1.547a.157.157 0 0 0 .159-.159V12.3a.157.157 0 0 0-.159-.159H14.97v-.6h1.547a.157.157 0 0 0 .159-.159v-.567a.167.167 0 0 0-.159-.16zm5.764-4.342V20.5a4.051 4.051 0 0 1-4.063 4.029H4.029A4.054 4.054 0 0 1 0 20.468V6.279A4.054 4.054 0 0 1 4.063 2.25h14.19a4.051 4.051 0 0 1 4.028 4.063zm-3.064 6.1c0-3.631-3.641-6.585-8.112-6.585S2.994 8.78 2.994 12.411c0 3.253 2.885 5.978 6.784 6.5.95.2.841.552.627 1.83-.035.2-.164.8.7.438a26.215 26.215 0 0 0 6.376-4.71 5.876 5.876 0 0 0 1.737-4.058z" transform="translate(0 -2.25)" style="fill:#717171"/>
</svg>
