<svg xmlns="http://www.w3.org/2000/svg" width="21.875" height="25" viewBox="0 0 21.875 25">
    <path data-name="Icon awesome-birthday-cake" d="M21.875 18.75c-1.368 0-1.526-1.562-3.638-1.562s-2.286 1.563-3.65 1.563-1.536-1.562-3.65-1.562c-2.092 0-2.306 1.563-3.638 1.563-1.374 0-1.524-1.562-3.65-1.562S1.372 18.75 0 18.75v-3.906A2.344 2.344 0 0 1 2.344 12.5h.781V5.469H6.25V12.5h3.125V5.469H12.5V12.5h3.125V5.469h3.125V12.5h.781a2.344 2.344 0 0 1 2.344 2.344zm0 6.25H0v-4.687c2.117 0 2.284-1.562 3.65-1.562s1.526 1.563 3.65 1.563c2.092 0 2.306-1.562 3.638-1.562 1.374 0 1.523 1.563 3.65 1.563s2.284-1.562 3.65-1.562c1.342 0 1.526 1.563 3.638 1.563zM4.688 4.688a1.558 1.558 0 0 1-1.563-1.563C3.125 1.611 4.688 2 4.688 0 5.273 0 6.25 1.44 6.25 2.734s-.696 1.954-1.562 1.954zm6.25 0a1.558 1.558 0 0 1-1.563-1.563C9.375 1.611 10.938 2 10.938 0c.585 0 1.562 1.44 1.562 2.734s-.7 1.954-1.562 1.954zm6.25 0a1.558 1.558 0 0 1-1.563-1.562C15.625 1.611 17.188 2 17.188 0c.586 0 1.563 1.44 1.563 2.734s-.697 1.954-1.563 1.954z" style="fill:#717171"/>
</svg>
