<svg xmlns="http://www.w3.org/2000/svg" width="20.563" height="23.5" viewBox="0 0 20.563 23.5">
    <path data-name="Icon awesome-address-book" d="M20.012 7.344a.552.552 0 0 0 .551-.551V4.957a.552.552 0 0 0-.551-.551h-.918V2.2a2.2 2.2 0 0 0-2.2-2.2H2.2A2.2 2.2 0 0 0 0 2.2v19.1a2.2 2.2 0 0 0 2.2 2.2h14.691a2.2 2.2 0 0 0 2.2-2.2v-2.2h.918a.552.552 0 0 0 .551-.551v-1.842a.552.552 0 0 0-.551-.551h-.918v-2.937h.918a.552.552 0 0 0 .551-.551v-1.836a.552.552 0 0 0-.551-.551h-.918V7.344zM9.547 5.875a2.938 2.938 0 1 1-2.938 2.938 2.94 2.94 0 0 1 2.938-2.938zm5.141 10.869a.963.963 0 0 1-1.028.881H5.434a.963.963 0 0 1-1.028-.881v-.881a2.89 2.89 0 0 1 3.084-2.644h.23a4.728 4.728 0 0 0 3.654 0h.226a2.89 2.89 0 0 1 3.084 2.644z" style="fill:#717171"/>
</svg>
